<?xml version="1.0" encoding="UTF-8" standalone="no"?>
<svg
   xmlns:dc="http://purl.org/dc/elements/1.1/"
   xmlns:cc="http://creativecommons.org/ns#"
   xmlns:rdf="http://www.w3.org/1999/02/22-rdf-syntax-ns#"
   xmlns:svg="http://www.w3.org/2000/svg"
   xmlns="http://www.w3.org/2000/svg"
   id="svg2343"
   version="1.1"
   viewBox="0 0 135.47112 40.100243"
   height="40.100243mm"
   width="135.47112mm">
  <defs
     id="defs2337" />
  <metadata
     id="metadata2340">
    <rdf:RDF>
      <cc:Work
         rdf:about="">
        <dc:format>image/svg+xml</dc:format>
        <dc:type
           rdf:resource="http://purl.org/dc/dcmitype/StillImage" />
        <dc:title></dc:title>
      </cc:Work>
    </rdf:RDF>
  </metadata>
  <g
     transform="translate(-23.063421,-157.39455)"
     id="layer1">
    <g
       transform="matrix(0.35277778,0,0,0.35277778,-97.363026,-4.9584853)"
       id="surface51993">
      <g
         id="g6687">
        <g
           id="g6665">
          <path
             id="path2447"
             d="m 639.09766,533.78516 h 8.11328 c 0.0976,0 0.67968,-1.41407 1.74609,-4.24219 v -0.0703 h -13.19141 c -1.14453,0 -2.20312,0.66015 -3.17968,1.97265 -0.77344,1.39063 -1.88672,4.04297 -3.33203,7.95703 -1.76954,4.04688 -2.65235,6.46875 -2.65235,7.26563 v 0.60937 c 0,0.35938 0.0508,0.63672 0.15625,0.83594 0.44531,1.05859 1.25,1.58984 2.42578,1.58984 h 14.60938 c -0.16016,-0.48437 -0.89453,-2.07031 -2.19922,-4.76953 h -8.48047 c 0,-0.19531 1.08594,-2.92578 3.26172,-8.18359 0.53906,-1.97656 1.44922,-2.96484 2.72266,-2.96484"
             style="fill:#3a3a3a;fill-opacity:1;fill-rule:nonzero;stroke:none" />
          <path
             id="path2449"
             d="m 467.46484,541.66016 h 106.36719 l 2.07031,-4.07813 H 469.53125 Z m 0,0"
             style="fill:#3a3a3a;fill-opacity:1;fill-rule:nonzero;stroke:none" />
          <path
             id="path2451"
             d="m 602.95312,531.87109 c 0,-0.25781 -0.0508,-0.55859 -0.15625,-0.90625 -0.50781,-1.01562 -1.54296,-1.51953 -3.10546,-1.51953 h -17.64844 v 0.0703 l 1.97265,4.1836 c 1.60938,0.0469 2.80079,0.0703 3.57813,0.0703 h 7.53125 c 0.66016,0.0977 0.99219,0.35156 0.99219,0.76563 v 0.15625 l -0.46875,1.36328 c -0.27344,0.85937 -1.13282,1.29297 -2.58203,1.29297 h -10.4961 l -4.9375,12.32812 v 0.0703 h 6 c 0.3125,-0.91015 0.8711,-2.30468 1.67578,-4.1875 0.98047,-2.55078 1.53907,-3.87109 1.67188,-3.95703 h 4.79687 c 0.69141,0 1.09375,0.4336 1.21875,1.30469 l -1.21875,6.83984 h 6 c 0.3125,-2.08203 0.61719,-4.54297 0.92188,-7.3789 0,-0.29297 -0.0273,-0.46875 -0.0859,-0.52344 0,-0.71094 -0.47656,-1.34375 -1.42969,-1.90234 h 0.14063 c 1.80469,-0.36719 2.94922,-0.90235 3.42969,-1.60157 1.46875,-3.34765 2.19921,-5.35547 2.19921,-6.01562 z m 0,0"
             style="fill:#3a3a3a;fill-opacity:1;fill-rule:nonzero;stroke:none" />
          <path
             id="path2453"
             d="m 662.52734,529.42969 h -6.01562 c -5.42969,13.375 -8.14453,20.12109 -8.14453,20.24218 v 0.0742 h 6.01562 c 4.76563,-11.75781 7.48047,-18.5039 8.14453,-20.24609 z m 0,0"
             style="fill:#3a3a3a;fill-opacity:1;fill-rule:nonzero;stroke:none" />
          <path
             id="path2455"
             d="m 692.96484,531.17578 c -0.53906,0.66016 -1.90625,3.79688 -4.09765,9.40625 -1.42188,3.34766 -2.12891,5.37109 -2.12891,6.07031 v 0.60938 c 0,0.35937 0.0508,0.64062 0.15625,0.83984 0.44531,1.0586 1.25391,1.58594 2.42578,1.58594 h 12.14453 c 1.26563,0 2.42969,-0.75391 3.48828,-2.26953 0.78516,-1.39844 2.25,-4.89453 4.39844,-10.48438 h -9.33594 l -1.58984,4.1875 v 0.0703 h 3.03906 l 0.14063,0.0703 -0.83594,1.90234 c -0.32422,1.16016 -1.43359,1.74219 -3.33594,1.74219 h -2.1289 c -1.0586,0 -1.58594,-0.30078 -1.58594,-0.90625 0,-0.43359 0.91016,-2.78906 2.73828,-7.06641 0.54688,-2.11718 1.47656,-3.17578 2.79297,-3.17578 h 10.78125 c 0,-0.0937 0.60547,-1.51562 1.81641,-4.25781 v -0.0703 h -15.92969 c -1.09766,0 -2.08203,0.58203 -2.95313,1.74609"
             style="fill:#3a3a3a;fill-opacity:1;fill-rule:nonzero;stroke:none" />
          <path
             id="path2457"
             d="m 687.48437,531.91406 c -0.28515,-1.6289 -1.32421,-2.4414 -3.12109,-2.4414 h -18.1875 v 0.0703 c 0,0.10547 0.66406,1.52734 1.98828,4.26953 -4.16015,10.20703 -6.29297,15.50781 -6.39844,15.90625 v 0.0703 h 6.01563 l 4.10156,-10.19922 c 1.48047,-3.73828 2.29688,-5.66015 2.4375,-5.77734 h 5.32031 c 0.61329,0.13281 0.92188,0.41406 0.92188,0.83984 v 0.29688 l -5.94531,14.83984 h 6.08593 l 4.88282,-12.01953 c 1.26562,-2.97656 1.89843,-4.83203 1.89843,-5.55859 z m 0,0"
             style="fill:#3a3a3a;fill-opacity:1;fill-rule:nonzero;stroke:none" />
          <path
             id="path2459"
             d="m 620.67969,534.77734 c -0.51172,1.66407 -0.85938,2.4961 -1.05078,2.4961 h -6.44141 c 0.88281,-2.32422 1.38672,-3.48828 1.51953,-3.48828 h 4.99219 c 0.45703,0 0.78125,0.20312 0.98047,0.60937 z m 6.59765,-2.58203 c 0,-0.30078 -0.0781,-0.67969 -0.23047,-1.13281 -0.5,-1.05859 -1.43359,-1.58984 -2.80859,-1.58984 h -17.63281 c 0,0.13281 0.68359,1.57031 2.04297,4.3125 -0.25391,0.44531 -2.40235,5.72265 -6.44141,15.83203 v 0.0703 h 5.83203 c 0.10547,-0.0664 0.35547,-0.59375 0.75,-1.58984 1.69531,-4.27344 2.60156,-6.44532 2.72656,-6.50782 h 6.44141 l -3.17969,8.02735 v 0.0703 h 5.98828 l 3.31641,-8.48047 c 2.12891,-4.83594 3.19531,-7.71094 3.19531,-8.625 z m 0,0"
             style="fill:#3a3a3a;fill-opacity:1;fill-rule:nonzero;stroke:none" />
          <path
             id="path2461"
             d="m 465.17187,549.80078 h 106.36719 l 2.07031,-4.07812 H 467.24219 Z m 0,0"
             style="fill:#3a3a3a;fill-opacity:1;fill-rule:nonzero;stroke:none" />
          <path
             id="path2463"
             d="m 545.17969,499.26562 c 0,-0.10937 0.82422,-2.24218 2.46484,-6.39062 h -30.8125 v 0.10547 c 0,0.15234 0.97656,2.24609 2.92578,6.28515 -6.1289,15.02735 -9.26562,22.83204 -9.42187,23.41797 v 0.10547 h 30.01953 v -0.10547 l -3.23828,-6.95703 h -15.01953 c 1.29687,-3.50781 2.03906,-5.26172 2.23437,-5.26172 h 12.89063 c 0,-0.11328 0.74609,-2.05468 2.23437,-5.82812 v -0.10547 h -12.86719 c 1.14063,-3.02344 1.88672,-4.77734 2.23438,-5.26563 z m 0,0"
             style="fill:#3a3a3a;fill-opacity:1;fill-rule:nonzero;stroke:none" />
          <path
             id="path2465"
             d="m 712.61328,502.17187 c -0.69531,1.19532 -2.03906,1.79297 -4.03125,1.79297 h -3.92578 c -1.35156,0 -2.02734,-0.44531 -2.02734,-1.33593 v -0.33204 c 0.14062,-0.69921 1.33984,-3.83984 3.59375,-9.42187 h -8.96094 c 0,0.13672 -0.375,1.14844 -1.12891,3.02734 -2.53515,5.89063 -3.80078,9.40235 -3.80078,10.53125 V 508 c 0.67969,1.93359 1.98828,2.90234 3.92578,2.90234 h 3.36328 v 0.125 c 0,0.17969 -1.53125,4.06641 -4.59765,11.65625 v 0.10547 h 8.96484 c 3.07813,-7.80078 4.71875,-11.76172 4.92969,-11.88672 h 4.46875 c 2.08984,0 3.77344,-0.82031 5.05469,-2.46484 1.03125,-0.86328 3.34375,-6.05078 6.9375,-15.5625 h -8.96094 c -1.57422,4.17578 -2.84375,7.27734 -3.80469,9.29687"
             style="fill:#3a3a3a;fill-opacity:1;fill-rule:nonzero;stroke:none" />
          <path
             id="path2467"
             d="m 654.23047,505.99219 c 2.16015,-4.92969 3.23828,-7.88282 3.23828,-8.85547 v -0.66797 c 0,-0.37891 -0.0781,-0.82422 -0.23047,-1.33984 -0.75,-1.48829 -2.27734,-2.23438 -4.57422,-2.23438 H 626.67578 V 493 l 2.90625,6.16016 c 2.36719,0.0703 4.12109,0.10546 5.26172,0.10546 h 11.09375 c 0.97656,0.14063 1.46094,0.51563 1.46094,1.12891 v 0.23047 l -0.6875,2.00391 c -0.40625,1.26953 -1.67188,1.90234 -3.80078,1.90234 h -15.46094 l -7.26953,18.15234 v 0.10547 h 8.83593 c 0.46094,-1.33594 1.28125,-3.39062 2.46485,-6.16406 1.44922,-3.75781 2.27344,-5.70313 2.46484,-5.82813 h 7.0625 c 1.01563,0 1.61719,0.64063 1.79688,1.92188 l -1.79688,10.07031 h 8.83594 c 0.46094,-3.0625 0.91406,-6.68359 1.35937,-10.86328 0,-0.42969 -0.043,-0.6875 -0.125,-0.77344 0,-1.04297 -0.70312,-1.97656 -2.11328,-2.79687 h 0.21094 c 2.66016,-0.54688 4.34375,-1.33203 5.05469,-2.36328"
             style="fill:#3a3a3a;fill-opacity:1;fill-rule:nonzero;stroke:none" />
          <path
             id="path2469"
             d="m 618.5,499.26562 c 0,-0.10937 0.82422,-2.24218 2.46484,-6.39062 h -30.8125 v 0.10547 c 0,0.15234 0.97657,2.24609 2.92578,6.28515 -6.1289,15.02735 -9.26562,22.83204 -9.42187,23.41797 v 0.10547 h 30.01953 v -0.10547 l -3.23828,-6.95703 h -15.01953 c 1.29687,-3.50781 2.03906,-5.26172 2.23437,-5.26172 h 12.89063 c 0,-0.11328 0.74609,-2.05468 2.23437,-5.82812 v -0.10547 h -12.86718 c 1.14062,-3.02344 1.88671,-4.77734 2.23437,-5.26563 z m 0,0"
             style="fill:#3a3a3a;fill-opacity:1;fill-rule:nonzero;stroke:none" />
          <path
             id="path2471"
             d="m 674.87891,499.24609 h 15.875 c 0,-0.14062 0.89453,-2.22656 2.67578,-6.26562 V 492.875 h -23.46094 c -1.61328,0 -3.0625,0.85547 -4.34375,2.57031 -0.79297,0.97266 -2.80469,5.58985 -6.03906,13.84766 -2.08594,4.92969 -3.13282,7.91015 -3.13282,8.9414 v 0.89844 c 0,0.53125 0.0781,0.94141 0.23047,1.23438 0.65625,1.55859 1.84375,2.33593 3.57422,2.33593 h 17.87891 c 1.86719,0 3.58203,-1.11328 5.14062,-3.33984 1.15625,-2.0625 3.3125,-7.20703 6.47657,-15.4375 h -13.7461 l -2.33984,6.16016 v 0.10547 h 4.46875 l 0.21094,0.10546 -1.23438,2.79688 c -0.47266,1.71484 -2.10937,2.57031 -4.90625,2.57031 h -3.13672 c -1.55859,0 -2.33594,-0.44531 -2.33594,-1.33594 0,-0.64062 1.33985,-4.10937 4.03125,-10.40234 0.80469,-3.12109 2.17969,-4.67969 4.11329,-4.67969"
             style="fill:#3a3a3a;fill-opacity:1;fill-rule:nonzero;stroke:none" />
          <path
             id="path2473"
             d="m 565.82812,522.85156 h 8.96094 l 7.1875,-17.69531 c 1.86719,-4.38672 2.80078,-7.11328 2.80078,-8.1875 v -0.4375 c -0.41797,-2.39844 -1.95312,-3.59375 -4.59765,-3.59375 h -26.78125 v 0.10547 c 0,0.15234 0.97656,2.24609 2.92578,6.28906 -6.12891,15.02344 -9.26563,22.82813 -9.42188,23.41406 v 0.10547 h 8.85938 l 6.03515,-15.01953 c 2.1875,-5.5 3.38672,-8.33594 3.59375,-8.5 h 7.83594 c 0.90235,0.19141 1.35547,0.60156 1.35547,1.23047 V 501 Z m 0,0"
             style="fill:#3a3a3a;fill-opacity:1;fill-rule:nonzero;stroke:none" />
          <path
             id="path2475"
             d="m 493.66406,500.8125 c 0,0.14062 -0.14453,0.58594 -0.4375,1.33594 -0.39062,1.1875 -1.625,1.77734 -3.69922,1.77734 h -7.01953 v -0.10547 c 1.11328,-3.05078 1.74219,-4.57422 1.88281,-4.57422 h 7.83204 c 0.96093,0.19532 1.4414,0.64063 1.4414,1.33594 z m -5.34765,13.85156 c -0.53125,0.66797 -1.60938,1 -3.23829,1 h -7.375 c 1.25391,-3.45312 2,-5.24219 2.23438,-5.36719 h 8.04297 c 0.78125,0 1.29687,0.375 1.54687,1.12891 0,0.61328 -0.40234,1.69141 -1.21093,3.23828 m 9.60937,-7.04297 c 1.71484,-1.2539 2.57031,-2.18359 2.57031,-2.79687 1.85157,-4.28906 2.77735,-6.97266 2.77735,-8.04297 0,-2.60547 -1.60157,-3.90625 -4.80469,-3.90625 h -26.02734 v 0.10547 c 0,0.15234 0.96484,2.24219 2.90234,6.26562 -6.10156,14.98438 -9.22656,22.76953 -9.37891,23.35547 v 0.10156 h 23.79297 c 2.13281,0 4.03125,-1.26562 5.70313,-3.80078 1.86718,-3.71875 2.79687,-6.0625 2.79687,-7.03906 0,-1.54687 -0.74219,-2.66016 -2.23437,-3.34375 0,-0.082 0.63281,-0.38281 1.90234,-0.89844"
             style="fill:#3a3a3a;fill-opacity:1;fill-rule:nonzero;stroke:none" />
          <path
             id="path2477"
             d="m 514.54687,497.36719 v -0.89844 c 0,-0.19531 -0.0781,-0.53906 -0.23046,-1.02344 -0.83594,-1.71484 -2.33204,-2.57031 -4.49219,-2.57031 h -2.89844 c 0,0.15234 4.59375,12.88672 4.59375,12.88672 2.01563,-4.52344 3.02734,-7.32422 3.02734,-8.39453"
             style="fill:#3a3a3a;fill-opacity:1;fill-rule:nonzero;stroke:none" />
        </g>
        <g
           id="g2933"
           transform="matrix(0.6094394,0,0,0.6094394,187.80487,200.47782)">
          <path
             id="path2479"
             d="m 374.32709,446.03916 c -14.71093,12.73828 -34.6875,28.46484 -54.17968,62.3125 7.95312,3.41015 15.00781,6.39843 22.96093,9.80859 -13.21484,21.88672 -26.25,45.50781 -32.82812,71.51953 -7.89453,-2.98828 -16.92578,-6.57812 -24.75781,-9.56641 0.77734,-17.46093 6.51953,-28.28515 10.9414,-40.0664 l -19.375,-8.67188 c 24.57813,-41.20312 58.78516,-66.19922 96.03906,-84.3789 m -59.85937,142.5039 c 14.71094,-12.73437 34.68359,-28.46484 54.17969,-62.37109 -7.95313,-3.40625 -15.01172,-6.33594 -22.96485,-9.74609 13.21875,-21.94922 26.19532,-45.50782 32.83203,-71.58204 7.89454,2.99219 16.86329,6.63672 24.75782,9.57032 -0.77735,17.46093 -6.51953,28.34375 -11.00391,40.0625 l 19.43359,8.67187 c -24.57812,41.20313 -58.78125,66.19922 -96.09765,84.37891"
             style="fill:#0f3a61;fill-opacity:1;fill-rule:nonzero;stroke:none" />
          <path
             id="path2481"
             d="m 345.26069,426.18759 c -17.16016,0 -31.75391,3.88672 -46.64063,12.4961 -14.83203,8.55468 -25.53515,19.25781 -34.14844,34.14843 -8.55078,14.82813 -12.5,29.42188 -12.5,46.58204 0,17.22265 3.94922,31.8164 12.5,46.64453 8.61329,14.89062 19.31641,25.53515 34.14844,34.14843 14.88672,8.60938 29.48047,12.4961 46.64063,12.4961 17.16406,0 31.7539,-3.88672 46.64453,-12.4961 14.83203,-8.61328 25.53515,-19.25781 34.14844,-34.14843 8.55078,-14.82813 12.49609,-29.42188 12.49609,-46.64453 0,-17.16016 -3.94531,-31.75391 -12.49609,-46.58204 -8.61329,-14.89062 -19.31641,-25.59375 -34.14844,-34.14843 -14.89063,-8.60938 -29.48047,-12.4961 -46.64453,-12.4961 m 0,5.98047 c 16.20312,0 29.66797,3.60547 43.66015,11.69922 13.98047,8.05859 23.83594,17.91797 31.95313,31.94922 8.08984,14.03125 11.69531,27.48047 11.69531,43.59766 0,16.16406 -3.60547,29.6289 -11.69141,43.65234 -8.07421,13.95703 -17.93359,23.81641 -31.96484,31.96094 -13.98437,8.08984 -27.44922,11.69531 -43.65234,11.69531 -16.19922,0 -29.66407,-3.60547 -43.64063,-11.6875 -14.03906,-8.15234 -23.89844,-18.01172 -31.96875,-31.96094 -8.08984,-14.03515 -11.69922,-27.49609 -11.69922,-43.66015 0,-16.11719 3.60938,-29.56641 11.69532,-43.58985 8.12109,-14.03906 17.97656,-23.89844 31.96484,-31.96094 13.98437,-8.08984 27.44922,-11.69531 43.64844,-11.69531"
             style="fill:#0f3a61;fill-opacity:1;fill-rule:nonzero;stroke:none" />
        </g>
      </g>
    </g>
  </g>
</svg>
